<svg xmlns="http://www.w3.org/2000/svg"  viewBox="0 0 64 64" width="96px" height="96px"><linearGradient id="MqDBRrEAg140YpAAB2zYma" x1="32" x2="32" y1="-1367.5" y2="-1421.251" gradientTransform="matrix(1 0 0 -1 0 -1362)" gradientUnits="userSpaceOnUse"><stop offset="0" stop-color="#1a6dff"/><stop offset="1" stop-color="#c822ff"/></linearGradient><path fill="url(#MqDBRrEAg140YpAAB2zYma)" d="M32,58C17.664,58,6,46.337,6,32S17.664,6,32,6s26,11.663,26,26S46.336,58,32,58z M32,8	C18.767,8,8,18.767,8,32s10.767,24,24,24s24-10.767,24-24S45.233,8,32,8z"/><linearGradient id="MqDBRrEAg140YpAAB2zYmb" x1="32" x2="32" y1="8.021" y2="54.229" gradientUnits="userSpaceOnUse"><stop offset="0" stop-color="#6dc7ff"/><stop offset="1" stop-color="#e6abff"/></linearGradient><path fill="url(#MqDBRrEAg140YpAAB2zYmb)" d="M12,31.999c0,7.916,4.6,14.758,11.272,17.999L13.732,23.86C12.622,26.347,12,29.1,12,31.999z M45.502,30.991c0-2.472-0.888-4.184-1.649-5.516c-1.014-1.648-1.965-3.043-1.965-4.691c0-1.838,1.394-3.549,3.359-3.549	c0.089,0,0.173,0.011,0.259,0.016C41.948,13.991,37.207,12,32,12c-6.988,0-13.134,3.585-16.711,9.014	c0.47,0.015,0.912,0.024,1.287,0.024c2.091,0,5.33-0.254,5.33-0.254c1.078-0.063,1.205,1.521,0.128,1.648	c0,0-1.084,0.127-2.289,0.19l7.283,21.664l4.377-13.126l-3.116-8.537c-1.078-0.063-2.098-0.19-2.098-0.19	c-1.078-0.064-0.952-1.711,0.127-1.648c0,0,3.302,0.254,5.267,0.254c2.091,0,5.331-0.254,5.331-0.254	c1.078-0.063,1.205,1.521,0.127,1.648c0,0-1.085,0.127-2.289,0.19l7.228,21.499l2.063-6.538	C44.964,34.726,45.502,32.702,45.502,30.991z M32.351,33.749L26.35,51.185C28.142,51.712,30.037,52,32,52	c2.329,0,4.563-0.402,6.642-1.134c-0.054-0.086-0.103-0.176-0.144-0.276L32.351,33.749z M49.551,22.405	c0.086,0.637,0.134,1.32,0.134,2.056c0,2.029-0.38,4.31-1.521,7.163l-6.108,17.661C48.001,45.819,52,39.378,52,31.999	C52,28.522,51.111,25.253,49.551,22.405z"/></svg>