<svg fill="#000000" xmlns="http://www.w3.org/2000/svg"  viewBox="0 0 32 32" width="96px" height="96px"><circle cx="21" cy="16" r="4"/><path d="M20.5,12h-8C9.467,12,7,9.533,7,6.5S9.467,1,12.5,1h8C23.533,1,26,3.467,26,6.5S23.533,12,20.5,12z M12.5,3 C10.57,3,9,4.57,9,6.5s1.57,3.5,3.5,3.5h8c1.93,0,3.5-1.57,3.5-3.5S22.43,3,20.5,3H12.5z"/><path d="M17,21h-5.5C8.467,21,6,18.533,6,15.5S8.467,10,11.5,10H17V21z M11.5,12C9.57,12,8,13.57,8,15.5S9.57,19,11.5,19H15v-7 H11.5z"/><path d="M11.5,30C8.467,30,6,27.533,6,24.5S8.467,19,11.5,19H17v5.5C17,27.533,14.533,30,11.5,30z M11.5,21C9.57,21,8,22.57,8,24.5 S9.57,28,11.5,28s3.5-1.57,3.5-3.5V21H11.5z"/></svg>