<svg width="166" height="67" viewBox="0 0 166 67" fill="none" xmlns="http://www.w3.org/2000/svg">
<ellipse cx="82.8889" cy="37.4358" rx="81.8889" ry="17.6806" stroke="black" stroke-width="1.4"/>
<path d="M24.0179 30.8405V41H22.9259V30.8405H24.0179ZM29.3098 41.1235C28.6165 41.1235 28.0033 40.9697 27.4703 40.662C26.9416 40.35 26.5256 39.9253 26.2223 39.388C25.9233 38.8463 25.7738 38.231 25.7738 37.542C25.7738 36.853 25.9233 36.242 26.2223 35.709C26.5256 35.176 26.9416 34.7578 27.4703 34.4545C28.0033 34.1512 28.6165 33.9995 29.3098 33.9995C30.0031 33.9995 30.6141 34.1512 31.1428 34.4545C31.6758 34.7578 32.0918 35.176 32.3908 35.709C32.6941 36.242 32.8458 36.853 32.8458 37.542C32.8458 38.231 32.6941 38.8463 32.3908 39.388C32.0918 39.9253 31.6758 40.35 31.1428 40.662C30.6141 40.9697 30.0031 41.1235 29.3098 41.1235ZM29.3098 40.1095C29.7865 40.1095 30.2068 40.0033 30.5708 39.791C30.9348 39.5787 31.2186 39.2797 31.4223 38.894C31.6303 38.5083 31.7343 38.0577 31.7343 37.542C31.7343 37.0263 31.6303 36.58 31.4223 36.203C31.2186 35.8217 30.9348 35.5292 30.5708 35.3255C30.2068 35.1175 29.7865 35.0135 29.3098 35.0135C28.8375 35.0135 28.4171 35.1175 28.0488 35.3255C27.6848 35.5292 27.3988 35.8217 27.1908 36.203C26.9871 36.58 26.8853 37.0263 26.8853 37.542C26.8853 38.0577 26.9871 38.5083 27.1908 38.894C27.3988 39.2797 27.6848 39.5787 28.0488 39.791C28.4171 40.0033 28.8375 40.1095 29.3098 40.1095ZM34.5715 41V34.097H35.6765V36.216L35.3125 36.086C35.3385 35.8303 35.4035 35.579 35.5075 35.332C35.6115 35.0807 35.7545 34.8553 35.9365 34.656C36.1229 34.4523 36.3547 34.292 36.632 34.175C36.9094 34.0537 37.2344 33.993 37.607 33.993C37.8844 33.993 38.1097 34.0168 38.283 34.0645C38.4607 34.1078 38.5712 34.1425 38.6145 34.1685L38.3285 35.254C38.2852 35.2237 38.1964 35.1847 38.062 35.137C37.932 35.0893 37.7457 35.0655 37.503 35.0655C37.1434 35.0655 36.8444 35.1305 36.606 35.2605C36.372 35.3905 36.1857 35.5638 36.047 35.7805C35.9127 35.9928 35.8174 36.2247 35.761 36.476C35.7047 36.7273 35.6765 36.9765 35.6765 37.2235V41H34.5715ZM40.0325 37.9905V37.0025H45.369L45.1741 37.3275C45.1741 37.3015 45.1741 37.2777 45.1741 37.256C45.1741 37.23 45.1741 37.2062 45.1741 37.1845C45.1741 36.7858 45.0896 36.4218 44.9205 36.0925C44.7559 35.7588 44.5089 35.4923 44.1795 35.293C43.8502 35.0937 43.4429 34.994 42.9575 34.994C42.4679 34.994 42.0367 35.098 41.664 35.306C41.2914 35.514 41.001 35.8087 40.793 36.19C40.585 36.567 40.481 37.0177 40.481 37.542C40.481 38.075 40.5807 38.5343 40.78 38.92C40.9837 39.3057 41.2719 39.6025 41.6445 39.8105C42.0172 40.0185 42.4592 40.1225 42.9705 40.1225C43.3345 40.1225 43.6509 40.0857 43.9195 40.012C44.1882 39.934 44.4092 39.8322 44.5825 39.7065C44.7602 39.5765 44.8945 39.4357 44.9855 39.284C45.0765 39.1323 45.1307 38.9807 45.1481 38.829H46.2531C46.2314 39.1063 46.1447 39.3815 45.993 39.6545C45.8414 39.9275 45.6269 40.1767 45.3495 40.402C45.0722 40.623 44.732 40.8007 44.329 40.935C43.926 41.0693 43.4624 41.1365 42.938 41.1365C42.2447 41.1365 41.6337 40.9848 41.105 40.6815C40.5764 40.3782 40.1604 39.9578 39.857 39.4205C39.558 38.8832 39.4085 38.2657 39.4085 37.568C39.4085 36.8617 39.5602 36.242 39.8635 35.709C40.1669 35.1717 40.585 34.7513 41.118 34.448C41.651 34.1447 42.2599 33.993 42.9445 33.993C43.6422 33.993 44.2467 34.1447 44.7581 34.448C45.2694 34.7513 45.6637 35.1673 45.9411 35.696C46.2184 36.2203 46.3571 36.8183 46.3571 37.49C46.3571 37.5593 46.3549 37.6503 46.3506 37.763C46.3462 37.8757 46.3397 37.9515 46.331 37.9905H40.0325ZM53.0193 41V37.6915C53.0193 37.4922 53.0193 37.3297 53.0193 37.204C53.0193 37.074 53.0193 36.9505 53.0193 36.8335C53.0193 36.4738 52.9587 36.1597 52.8373 35.891C52.716 35.6223 52.5253 35.4143 52.2653 35.267C52.0053 35.1197 51.6652 35.046 51.2448 35.046C50.8765 35.046 50.5342 35.1413 50.2178 35.332C49.9058 35.5183 49.6545 35.7718 49.4638 36.0925C49.2775 36.4088 49.1843 36.7642 49.1843 37.1585L48.5538 36.918C48.5538 36.3763 48.686 35.8845 48.9503 35.4425C49.219 35.0005 49.5743 34.6495 50.0163 34.3895C50.4627 34.1252 50.948 33.993 51.4723 33.993C52.0053 33.993 52.4712 34.0948 52.8698 34.2985C53.2685 34.5022 53.5762 34.7947 53.7928 35.176C54.0138 35.553 54.1243 36.008 54.1243 36.541C54.1243 36.7317 54.1243 36.9397 54.1243 37.165C54.1243 37.3903 54.1243 37.6005 54.1243 37.7955V41H53.0193ZM48.0793 41V34.097H49.1843V41H48.0793ZM56.78 39.986H60.875V41H55.545V40.025L59.5945 35.085L59.601 35.111H55.7075V34.097H60.8165V35.072L56.7865 39.999L56.78 39.986ZM65.3645 41.1235C64.6711 41.1235 64.058 40.9697 63.525 40.662C62.9963 40.35 62.5803 39.9253 62.277 39.388C61.978 38.8463 61.8285 38.231 61.8285 37.542C61.8285 36.853 61.978 36.242 62.277 35.709C62.5803 35.176 62.9963 34.7578 63.525 34.4545C64.058 34.1512 64.6711 33.9995 65.3645 33.9995C66.0578 33.9995 66.6688 34.1512 67.1975 34.4545C67.7305 34.7578 68.1465 35.176 68.4455 35.709C68.7488 36.242 68.9005 36.853 68.9005 37.542C68.9005 38.231 68.7488 38.8463 68.4455 39.388C68.1465 39.9253 67.7305 40.35 67.1975 40.662C66.6688 40.9697 66.0578 41.1235 65.3645 41.1235ZM65.3645 40.1095C65.8411 40.1095 66.2615 40.0033 66.6255 39.791C66.9895 39.5787 67.2733 39.2797 67.477 38.894C67.685 38.5083 67.789 38.0577 67.789 37.542C67.789 37.0263 67.685 36.58 67.477 36.203C67.2733 35.8217 66.9895 35.5292 66.6255 35.3255C66.2615 35.1175 65.8411 35.0135 65.3645 35.0135C64.8921 35.0135 64.4718 35.1175 64.1035 35.3255C63.7395 35.5292 63.4535 35.8217 63.2455 36.203C63.0418 36.58 62.94 37.0263 62.94 37.542C62.94 38.0577 63.0418 38.5083 63.2455 38.894C63.4535 39.2797 63.7395 39.5787 64.1035 39.791C64.4718 40.0033 64.8921 40.1095 65.3645 40.1095ZM73.9997 41.13C73.4667 41.13 72.9684 41 72.5047 40.74C72.0411 40.4757 71.6641 40.1138 71.3737 39.6545C71.0877 39.1952 70.9447 38.6708 70.9447 38.0815C70.9447 38.0685 70.9447 38.0577 70.9447 38.049C70.9447 38.0403 70.9447 38.0295 70.9447 38.0165L71.7377 37.997C71.7377 38.0057 71.7377 38.0165 71.7377 38.0295C71.7377 38.0382 71.7377 38.0468 71.7377 38.0555C71.7377 38.4282 71.8352 38.7683 72.0302 39.076C72.2296 39.3837 72.4896 39.6285 72.8102 39.8105C73.1309 39.9925 73.4754 40.0835 73.8437 40.0835C74.4547 40.0835 74.9617 39.8755 75.3647 39.4595C75.7721 39.0392 75.9757 38.4 75.9757 37.542C75.9757 36.6797 75.7742 36.0427 75.3712 35.631C74.9682 35.215 74.4591 35.007 73.8437 35.007C73.4754 35.007 73.1309 35.098 72.8102 35.28C72.4896 35.4577 72.2296 35.6982 72.0302 36.0015C71.8352 36.3048 71.7377 36.645 71.7377 37.022L70.9447 36.996C70.9447 36.4023 71.0877 35.8802 71.3737 35.4295C71.6641 34.9788 72.0411 34.6278 72.5047 34.3765C72.9684 34.1208 73.4667 33.993 73.9997 33.993C74.5587 33.993 75.0744 34.1317 75.5467 34.409C76.0191 34.682 76.3982 35.0828 76.6842 35.6115C76.9702 36.1402 77.1132 36.7837 77.1132 37.542C77.1132 38.3133 76.9724 38.9677 76.6907 39.505C76.4091 40.038 76.0321 40.4432 75.5597 40.7205C75.0874 40.9935 74.5674 41.13 73.9997 41.13ZM70.6262 41V30.8405H71.7377V41H70.6262ZM78.8401 41V34.097H79.9451V36.216L79.5811 36.086C79.6071 35.8303 79.6721 35.579 79.7761 35.332C79.8801 35.0807 80.0231 34.8553 80.2051 34.656C80.3914 34.4523 80.6233 34.292 80.9006 34.175C81.1779 34.0537 81.5029 33.993 81.8756 33.993C82.1529 33.993 82.3783 34.0168 82.5516 34.0645C82.7293 34.1078 82.8398 34.1425 82.8831 34.1685L82.5971 35.254C82.5538 35.2237 82.4649 35.1847 82.3306 35.137C82.2006 35.0893 82.0143 35.0655 81.7716 35.0655C81.4119 35.0655 81.1129 35.1305 80.8746 35.2605C80.6406 35.3905 80.4543 35.5638 80.3156 35.7805C80.1813 35.9928 80.0859 36.2247 80.0296 36.476C79.9733 36.7273 79.9451 36.9765 79.9451 37.2235V41H78.8401ZM86.3551 41.13C85.8308 41.13 85.3714 41.0477 84.9771 40.883C84.5871 40.7183 84.2838 40.4822 84.0671 40.1745C83.8504 39.8625 83.7421 39.4898 83.7421 39.0565C83.7421 38.6058 83.8591 38.231 84.0931 37.932C84.3271 37.6287 84.6564 37.3925 85.0811 37.2235C85.5058 37.0545 85.9998 36.9418 86.5631 36.8855C87.4124 36.7988 88.0169 36.7143 88.3766 36.632C88.7363 36.5453 88.9161 36.4067 88.9161 36.216C88.9161 36.2117 88.9161 36.2095 88.9161 36.2095C88.9161 36.2052 88.9161 36.2008 88.9161 36.1965C88.9161 35.7978 88.7536 35.501 88.4286 35.306C88.1036 35.1067 87.6334 35.007 87.0181 35.007C86.3768 35.007 85.8784 35.1197 85.5231 35.345C85.1678 35.566 84.9901 35.9257 84.9901 36.424H83.8981C83.8981 35.9083 84.0303 35.4707 84.2946 35.111C84.5589 34.747 84.9251 34.4697 85.3931 34.279C85.8654 34.0883 86.4093 33.993 87.0246 33.993C87.5879 33.993 88.0949 34.0797 88.5456 34.253C89.0006 34.422 89.3603 34.6755 89.6246 35.0135C89.8933 35.3472 90.0276 35.761 90.0276 36.255C90.0276 36.346 90.0276 36.437 90.0276 36.528C90.0276 36.6147 90.0276 36.7035 90.0276 36.7945V39.7C90.0276 39.8517 90.0341 39.999 90.0471 40.142C90.0601 40.285 90.0818 40.4107 90.1121 40.519C90.1511 40.649 90.1944 40.7552 90.2421 40.8375C90.2898 40.9155 90.3288 40.9697 90.3591 41H89.2476C89.2259 40.9783 89.1934 40.9285 89.1501 40.8505C89.1068 40.7682 89.0656 40.6728 89.0266 40.5645C88.9963 40.4778 88.9724 40.3695 88.9551 40.2395C88.9378 40.1052 88.9291 39.9665 88.9291 39.8235L89.1111 39.947C88.9768 40.181 88.7796 40.3868 88.5196 40.5645C88.2639 40.7422 87.9541 40.8808 87.5901 40.9805C87.2261 41.0802 86.8144 41.13 86.3551 41.13ZM86.5306 40.1355C86.9769 40.1355 87.3799 40.0683 87.7396 39.934C88.0993 39.7953 88.3853 39.5917 88.5976 39.323C88.8099 39.0543 88.9161 38.7207 88.9161 38.322V36.9505L89.1631 37.3665C88.8858 37.4748 88.5391 37.5637 88.1231 37.633C87.7114 37.698 87.2803 37.7522 86.8296 37.7955C86.1753 37.8562 85.6813 37.971 85.3476 38.14C85.0183 38.309 84.8536 38.5928 84.8536 38.9915C84.8536 39.3685 84.9901 39.6545 85.2631 39.8495C85.5361 40.0402 85.9586 40.1355 86.5306 40.1355ZM96.8055 41V37.6915C96.8055 37.4922 96.8055 37.3297 96.8055 37.204C96.8055 37.074 96.8055 36.9505 96.8055 36.8335C96.8055 36.4738 96.7448 36.1597 96.6235 35.891C96.5021 35.6223 96.3115 35.4143 96.0515 35.267C95.7915 35.1197 95.4513 35.046 95.031 35.046C94.6626 35.046 94.3203 35.1413 94.004 35.332C93.692 35.5183 93.4406 35.7718 93.25 36.0925C93.0636 36.4088 92.9705 36.7642 92.9705 37.1585L92.34 36.918C92.34 36.3763 92.4721 35.8845 92.7365 35.4425C93.0051 35.0005 93.3605 34.6495 93.8025 34.3895C94.2488 34.1252 94.7341 33.993 95.2585 33.993C95.7915 33.993 96.2573 34.0948 96.656 34.2985C97.0546 34.5022 97.3623 34.7947 97.579 35.176C97.8 35.553 97.9105 36.008 97.9105 36.541C97.9105 36.7317 97.9105 36.9397 97.9105 37.165C97.9105 37.3903 97.9105 37.6005 97.9105 37.7955V41H96.8055ZM91.8655 41V34.097H92.9705V41H91.8655ZM102.685 41.13C102.117 41.13 101.597 40.9935 101.125 40.7205C100.653 40.4432 100.276 40.038 99.9941 39.505C99.7125 38.9677 99.5716 38.3133 99.5716 37.542C99.5716 36.7837 99.7146 36.1402 100.001 35.6115C100.287 35.0828 100.666 34.682 101.138 34.409C101.61 34.1317 102.126 33.993 102.685 33.993C103.218 33.993 103.716 34.1208 104.18 34.3765C104.648 34.6278 105.025 34.9788 105.311 35.4295C105.597 35.8802 105.74 36.4023 105.74 36.996C105.74 37.009 105.74 37.022 105.74 37.035C105.74 37.048 105.74 37.061 105.74 37.074L104.947 37.1065C104.947 37.0935 104.947 37.0805 104.947 37.0675C104.947 37.0502 104.947 37.035 104.947 37.022C104.947 36.645 104.847 36.3048 104.648 36.0015C104.453 35.6982 104.195 35.4577 103.875 35.28C103.554 35.098 103.209 35.007 102.841 35.007C102.226 35.007 101.717 35.215 101.314 35.631C100.911 36.0427 100.709 36.6797 100.709 37.542C100.709 38.4 100.911 39.0392 101.314 39.4595C101.721 39.8755 102.23 40.0835 102.841 40.0835C103.227 40.0835 103.578 39.9903 103.894 39.804C104.215 39.6177 104.47 39.3685 104.661 39.0565C104.852 38.7402 104.947 38.387 104.947 37.997L105.74 38.0165C105.74 38.6058 105.604 39.1367 105.331 39.609C105.058 40.077 104.689 40.4475 104.226 40.7205C103.766 40.9935 103.253 41.13 102.685 41.13ZM104.947 41V30.8405H106.059V41H104.947ZM108.066 41V34.097H109.158V41H108.066ZM108.619 32.511C108.415 32.511 108.237 32.4547 108.086 32.342C107.938 32.225 107.865 32.0668 107.865 31.8675C107.865 31.6725 107.938 31.5187 108.086 31.406C108.237 31.289 108.415 31.2305 108.619 31.2305C108.822 31.2305 108.998 31.289 109.145 31.406C109.293 31.5187 109.366 31.6725 109.366 31.8675C109.366 32.0668 109.293 32.225 109.145 32.342C108.998 32.4547 108.822 32.511 108.619 32.511ZM115.458 41V37.9515C115.458 37.6828 115.458 37.451 115.458 37.256C115.458 37.0567 115.458 36.8898 115.458 36.7555C115.458 36.5865 115.445 36.4045 115.419 36.2095C115.397 36.0102 115.343 35.8238 115.256 35.6505C115.169 35.4728 115.033 35.3277 114.847 35.215C114.665 35.1023 114.411 35.046 114.086 35.046C113.757 35.046 113.479 35.111 113.254 35.241C113.029 35.3667 112.847 35.5335 112.708 35.7415C112.569 35.9495 112.47 36.1792 112.409 36.4305C112.348 36.6775 112.318 36.9223 112.318 37.165L111.694 36.9115C111.694 36.3915 111.802 35.9105 112.019 35.4685C112.236 35.0265 112.539 34.6712 112.929 34.4025C113.323 34.1295 113.785 33.993 114.314 33.993C114.838 33.993 115.265 34.0992 115.594 34.3115C115.923 34.5238 116.166 34.8163 116.322 35.189C116.478 35.5617 116.556 35.9907 116.556 36.476C116.556 36.6493 116.556 36.8725 116.556 37.1455C116.556 37.4142 116.556 37.7218 116.556 38.0685V41H115.458ZM111.213 41V34.097H112.318V41H111.213ZM119.689 41V37.9515C119.689 37.6568 119.689 37.4142 119.689 37.2235C119.689 37.0285 119.689 36.8638 119.689 36.7295C119.689 36.5605 119.678 36.3785 119.657 36.1835C119.635 35.9885 119.581 35.8065 119.494 35.6375C119.407 35.4642 119.269 35.3233 119.078 35.215C118.892 35.1023 118.63 35.046 118.292 35.046C117.958 35.046 117.678 35.1088 117.453 35.2345C117.232 35.3602 117.054 35.5248 116.92 35.7285C116.79 35.9322 116.697 36.1532 116.641 36.3915C116.584 36.6255 116.556 36.8508 116.556 37.0675L115.932 36.827C115.932 36.333 116.036 35.8715 116.244 35.4425C116.456 35.0092 116.755 34.6603 117.141 34.396C117.531 34.1273 117.993 33.993 118.526 33.993C119.024 33.993 119.44 34.0905 119.774 34.2855C120.112 34.4805 120.365 34.7557 120.534 35.111C120.707 35.462 120.794 35.8802 120.794 36.3655C120.794 36.5475 120.794 36.7728 120.794 37.0415C120.794 37.3102 120.794 37.6135 120.794 37.9515V41H119.689ZM125.127 41.13C124.602 41.13 124.143 41.0477 123.749 40.883C123.359 40.7183 123.055 40.4822 122.839 40.1745C122.622 39.8625 122.514 39.4898 122.514 39.0565C122.514 38.6058 122.631 38.231 122.865 37.932C123.099 37.6287 123.428 37.3925 123.853 37.2235C124.277 37.0545 124.771 36.9418 125.335 36.8855C126.184 36.7988 126.788 36.7143 127.148 36.632C127.508 36.5453 127.688 36.4067 127.688 36.216C127.688 36.2117 127.688 36.2095 127.688 36.2095C127.688 36.2052 127.688 36.2008 127.688 36.1965C127.688 35.7978 127.525 35.501 127.2 35.306C126.875 35.1067 126.405 35.007 125.79 35.007C125.148 35.007 124.65 35.1197 124.295 35.345C123.939 35.566 123.762 35.9257 123.762 36.424H122.67C122.67 35.9083 122.802 35.4707 123.066 35.111C123.33 34.747 123.697 34.4697 124.165 34.279C124.637 34.0883 125.181 33.993 125.796 33.993C126.359 33.993 126.866 34.0797 127.317 34.253C127.772 34.422 128.132 34.6755 128.396 35.0135C128.665 35.3472 128.799 35.761 128.799 36.255C128.799 36.346 128.799 36.437 128.799 36.528C128.799 36.6147 128.799 36.7035 128.799 36.7945V39.7C128.799 39.8517 128.806 39.999 128.819 40.142C128.832 40.285 128.853 40.4107 128.884 40.519C128.923 40.649 128.966 40.7552 129.014 40.8375C129.061 40.9155 129.1 40.9697 129.131 41H128.019C127.997 40.9783 127.965 40.9285 127.922 40.8505C127.878 40.7682 127.837 40.6728 127.798 40.5645C127.768 40.4778 127.744 40.3695 127.727 40.2395C127.709 40.1052 127.701 39.9665 127.701 39.8235L127.883 39.947C127.748 40.181 127.551 40.3868 127.291 40.5645C127.035 40.7422 126.726 40.8808 126.362 40.9805C125.998 41.0802 125.586 41.13 125.127 41.13ZM125.302 40.1355C125.748 40.1355 126.151 40.0683 126.511 39.934C126.871 39.7953 127.157 39.5917 127.369 39.323C127.581 39.0543 127.688 38.7207 127.688 38.322V36.9505L127.935 37.3665C127.657 37.4748 127.311 37.5637 126.895 37.633C126.483 37.698 126.052 37.7522 125.601 37.7955C124.947 37.8562 124.453 37.971 124.119 38.14C123.79 38.309 123.625 38.5928 123.625 38.9915C123.625 39.3685 123.762 39.6545 124.035 39.8495C124.308 40.0402 124.73 40.1355 125.302 40.1355ZM130.637 41V34.097H131.742V36.216L131.378 36.086C131.404 35.8303 131.469 35.579 131.573 35.332C131.677 35.0807 131.82 34.8553 132.002 34.656C132.188 34.4523 132.42 34.292 132.697 34.175C132.975 34.0537 133.3 33.993 133.672 33.993C133.95 33.993 134.175 34.0168 134.348 34.0645C134.526 34.1078 134.637 34.1425 134.68 34.1685L134.394 35.254C134.351 35.2237 134.262 35.1847 134.127 35.137C133.997 35.0893 133.811 35.0655 133.568 35.0655C133.209 35.0655 132.91 35.1305 132.671 35.2605C132.437 35.3905 132.251 35.5638 132.112 35.7805C131.978 35.9928 131.883 36.2247 131.826 36.476C131.77 36.7273 131.742 36.9765 131.742 37.2235V41H130.637ZM138.597 41.104C138.385 41.104 138.177 41.0802 137.973 41.0325C137.77 40.9848 137.586 40.9003 137.421 40.779C137.261 40.6533 137.133 40.4778 137.037 40.2525C136.942 40.0228 136.894 39.7282 136.894 39.3685C136.894 39.2775 136.894 39.1843 136.894 39.089C136.894 38.9893 136.894 38.8853 136.894 38.777V35.072H135.211V34.097H136.29C136.437 34.097 136.552 34.0927 136.634 34.084C136.717 34.071 136.775 34.0428 136.81 33.9995C136.849 33.9518 136.873 33.8803 136.881 33.785C136.89 33.6853 136.894 33.5488 136.894 33.3755V31.809H138.006V34.097H140.164V35.072H138.006V38.4195C138.006 38.5148 138.006 38.608 138.006 38.699C138.006 38.79 138.006 38.8745 138.006 38.9525C138.006 39.3208 138.049 39.609 138.136 39.817C138.227 40.025 138.428 40.129 138.74 40.129C138.866 40.129 138.985 40.1182 139.098 40.0965C139.211 40.0748 139.295 40.0532 139.351 40.0315V40.9935C139.278 41.0195 139.174 41.0433 139.039 41.065C138.909 41.091 138.762 41.104 138.597 41.104ZM141.709 37.9905V37.0025H147.046L146.851 37.3275C146.851 37.3015 146.851 37.2777 146.851 37.256C146.851 37.23 146.851 37.2062 146.851 37.1845C146.851 36.7858 146.766 36.4218 146.597 36.0925C146.433 35.7588 146.186 35.4923 145.856 35.293C145.527 35.0937 145.12 34.994 144.634 34.994C144.145 34.994 143.713 35.098 143.341 35.306C142.968 35.514 142.678 35.8087 142.47 36.19C142.262 36.567 142.158 37.0177 142.158 37.542C142.158 38.075 142.257 38.5343 142.457 38.92C142.66 39.3057 142.949 39.6025 143.321 39.8105C143.694 40.0185 144.136 40.1225 144.647 40.1225C145.011 40.1225 145.328 40.0857 145.596 40.012C145.865 39.934 146.086 39.8322 146.259 39.7065C146.437 39.5765 146.571 39.4357 146.662 39.284C146.753 39.1323 146.807 38.9807 146.825 38.829H147.93C147.908 39.1063 147.821 39.3815 147.67 39.6545C147.518 39.9275 147.304 40.1767 147.026 40.402C146.749 40.623 146.409 40.8007 146.006 40.935C145.603 41.0693 145.139 41.1365 144.615 41.1365C143.921 41.1365 143.31 40.9848 142.782 40.6815C142.253 40.3782 141.837 39.9578 141.534 39.4205C141.235 38.8832 141.085 38.2657 141.085 37.568C141.085 36.8617 141.237 36.242 141.54 35.709C141.844 35.1717 142.262 34.7513 142.795 34.448C143.328 34.1447 143.937 33.993 144.621 33.993C145.319 33.993 145.923 34.1447 146.435 34.448C146.946 34.7513 147.34 35.1673 147.618 35.696C147.895 36.2203 148.034 36.8183 148.034 37.49C148.034 37.5593 148.032 37.6503 148.027 37.763C148.023 37.8757 148.016 37.9515 148.008 37.9905H141.709Z" fill="black"/>
</svg>
